<svg width="513" height="513" viewBox="0 0 513 513" fill="none" xmlns="http://www.w3.org/2000/svg">
<rect x="0.5" y="0.5" width="512" height="512" rx="80" fill="#36393F"/>
<path d="M126.85 113.371H241.3V131.821H126.85V113.371ZM137.2 161.671H229.3V179.971H137.2V161.671ZM118.45 212.521H249.25V230.821H118.45V212.521Z" fill="#8080FF"/>
<path d="M389.35 146.371V165.421H272.95V146.371H292.6V133.021H274.3V113.971H388V133.021H369.7V146.371H389.35ZM317.8 133.021V146.371H344.5V133.021H317.8ZM395.95 190.471H343.75V197.221H388.45V242.071H273.85V197.221H318.55V190.471H266.35V171.271H395.95V190.471ZM363.4 223.471V215.821H298.9V223.471H363.4ZM236.95 292.471H251.65V316.321H236.95V361.021H211.6V263.971H236.95V292.471ZM171.25 313.771V286.321H121.15V264.871H196.45V313.771H171.25ZM204.25 338.071C196.3 341.521 183.4 342.721 170.65 342.721H116.35V321.571H134.05V297.871H159.1V321.571H171.1C182.95 321.571 196.3 320.371 204.25 316.921V338.071ZM149.5 351.721V370.471H238.75V392.071H123.85V351.721H149.5ZM384.537 263.971V392.071H359.187V263.971H384.537ZM340.587 266.971V337.471H291.537V363.271H319.287C331.437 363.271 344.637 360.721 352.437 357.121V379.921C344.637 383.821 330.987 386.071 318.237 386.071H266.337V314.971H315.387V289.771H266.037V266.971H340.587Z" fill="#F5F5F5"/>
</svg>
