<svg width="280" height="280" viewBox="0 0 280 280" fill="none" xmlns="http://www.w3.org/2000/svg">
<path d="M10.85 0.370702H125.3V18.8207H10.85V0.370702ZM21.2 48.6707H113.3V66.9707H21.2V48.6707ZM2.45 99.5207H133.25V117.821H2.45V99.5207Z" fill="#8080FF"/>
<path d="M273.35 33.3707V52.4207H156.95V33.3707H176.6V20.0207H158.3V0.970694H272V20.0207H253.7V33.3707H273.35ZM201.8 20.0207V33.3707H228.5V20.0207H201.8ZM279.95 77.4707H227.75V84.2207H272.45V129.071H157.85V84.2207H202.55V77.4707H150.35V58.2707H279.95V77.4707ZM247.4 110.471V102.821H182.9V110.471H247.4ZM120.95 179.471H135.65V203.321H120.95V248.021H95.6V150.971H120.95V179.471ZM55.25 200.771V173.321H5.15V151.871H80.45V200.771H55.25ZM88.25 225.071C80.3 228.521 67.4 229.721 54.65 229.721H0.35V208.571H18.05V184.871H43.1V208.571H55.1C66.95 208.571 80.3 207.371 88.25 203.921V225.071ZM33.5 238.721V257.471H122.75V279.071H7.85V238.721H33.5ZM268.537 150.971V279.071H243.187V150.971H268.537ZM224.587 153.971V224.471H175.537V250.271H203.287C215.437 250.271 228.637 247.721 236.437 244.121V266.921C228.637 270.821 214.987 273.071 202.237 273.071H150.337V201.971H199.387V176.771H150.037V153.971H224.587Z" fill="#F5F5F5"/>
</svg>
